<svg fill="none" xmlns="http://www.w3.org/2000/svg" viewBox="0 0 146 130" aria-hidden="true" role="img"><path d="M8.434 2.24h4.118a7.588 7.588 0 017.604 7.59v117.776H.83V9.829A7.604 7.604 0 018.434 2.24z" fill="url(#paint0_linear_11370_50653-uid-1)"></path><path d="M136.064 23.023H10.494v19.444h125.57V23.023z" fill="#14A800"></path><path d="M72.646 42.465h-9.78l15.37-19.428h9.809L72.646 42.465zm-49.093 0h9.825l15.398-19.428h-9.81L23.554 42.465zm44.858-19.428H58.6L43.23 42.465h9.825L68.41 23.037zm67.653 1.353l-14.295 18.09h9.824l4.413-5.662.058-12.428zM10.494 42.465h3.323l15.325-19.428h-9.81l-8.824 11.178-.015 8.25zm97.185-19.428h-9.81L82.5 42.465h9.825l15.354-19.428zm19.635 0h-9.81l-15.369 19.428h9.824l15.355-19.428z" fill="#95DF00"></path><path d="M134.108 2.24h4.118a7.587 7.587 0 017.603 7.59v117.776h-19.325V9.829a7.606 7.606 0 017.604-7.589z" fill="url(#paint1_linear_11370_50653-uid-1)"></path><path d="M10.493 42.465c3.295 0 9.663 4.191 9.663 10.295V42.465h-9.663z" fill="url(#paint2_linear_11370_50653-uid-1)"></path><defs><linearGradient id="paint0_linear_11370_50653-uid-1" x1=".83" y1="64.923" x2="20.155" y2="64.923" gradientUnits="userSpaceOnUse"><stop stop-color="#9AAA97"></stop><stop offset=".26" stop-color="#91A18D"></stop><stop offset=".7" stop-color="#798871"></stop><stop offset="1" stop-color="#65735B"></stop></linearGradient><linearGradient id="paint1_linear_11370_50653-uid-1" x1="126.504" y1="64.923" x2="145.829" y2="64.923" gradientUnits="userSpaceOnUse"><stop stop-color="#9AAA97"></stop><stop offset=".26" stop-color="#91A18D"></stop><stop offset=".7" stop-color="#798871"></stop><stop offset="1" stop-color="#65735B"></stop></linearGradient><linearGradient id="paint2_linear_11370_50653-uid-1" x1="15.317" y1="52.804" x2="15.317" y2="42.465" gradientUnits="userSpaceOnUse"><stop stop-color="#65735B" stop-opacity="0"></stop><stop offset="1" stop-color="#65735B"></stop></linearGradient></defs></svg>